<svg xmlns="http://www.w3.org/2000/svg" version="1.1" xmlns:xlink="http://www.w3.org/1999/xlink" xmlns:svgjs="http://svgjs.com/svgjs" width="1000" height="1000"><rect width="1000" height="1000" rx="200" ry="200" fill="#f5f5f5"></rect><g transform="matrix(0.8333333333333334,0,0,0.8333333333333334,49.99839782714844,49.99920145670569)"><svg xmlns="http://www.w3.org/2000/svg" version="1.1" xmlns:xlink="http://www.w3.org/1999/xlink" xmlns:svgjs="http://svgjs.com/svgjs" width="1080" height="1080"><svg xmlns="http://www.w3.org/2000/svg" xml:space="preserve" viewBox="0 0 1080 1080">
  <path fill="#fa0" d="M625.5372 418.064c8.1328-8.0444 22.862-6.5065 30.9948 1.5288l69.7544 68.9962c8.1328 8.0444 9.6784 22.6135 1.5456 30.6579-8.1328 8.0444-22.862 6.5065-30.9948-1.5288l-69.7544-68.9962c-8.1328-8.0444-9.6784-22.6135-1.5456-30.6579Z" vector-effect="non-scaling-stroke"></path>
  <path d="m477.68 414.3238 4.71753236-.0402768c5.14730478-.03077476 10.29191418.00988254 15.43910828.05409027 3.57544902-.00038113 7.1508989-.00404186 10.72634277-.01084809 7.49402594-.0034071 14.9871267.02752873 22.48098144.083519 9.61044113.06982778 19.21934467.06309614 28.82989958.03175832 7.38326726-.0171018 14.76617853.00203317 22.14940033.0326123 3.54367713.0111173 7.0873924.01192404 10.631073.00229911 4.9512792-.00715264 9.90043277.03338575 14.85144349.08708027 2.81847876.01329133 5.63695752.02658268 8.54084473.04027679 6.84626466.95369292 6.84626466.95369292 10.97045897 4.24456604 5.78506256 9.55481085 4.89695061 19.40505062 4.74348145 30.42542083-.03544046 4.00023073-.06997366 8.00047159-.10372923 12.00072054l-.06358874 6.43352816c-.11390858 13.6800972-.10073676 27.3609634-.11299017 41.0415585-.01799145 11.984665-.0782654 23.96537364-.2320942 35.94889008-.14668438 11.62226799-.1722663 23.23828582-.12043838 34.86148465-.00132937 4.39636786-.04464948 8.7930166-.13368988 13.18825721-.62470677 32.53158457 5.6120015 51.8259599 24.13088493 76.99869958 4.3905216 6.08076746 8.25862908 12.48016312 12.1804699 18.94744233 2.7950524 4.48498364 5.5908834 8.96936071 8.3875 13.453125 10.0367313 16.10959568 20.05045056 32.23497056 29.975 48.43125 8.99197051 14.67190268 18.09100965 29.25699614 27.225 43.81875 12.40879207 19.78869254 24.74670795 39.6263176 36.91660155 59.59974611 2.58148986 4.19466263 5.21092524 8.34573145 7.85683596 12.48978514 13.26264216 21.193483 22.04349675 41.74337737 19.0265625 68.13046875-2.81586299 14.91335798-6.9206836 24.48881882-17.6 34.44-1.58812503 1.725075-3.17625 3.45015-4.8125 5.2275-20.52526166 15.3006496-45.0556202 13.04497233-68.70703128 12.94743166-4.08573074.0100133-8.17145619.02316085-12.25717163.03918821-11.0454107.03351268-22.09041245.02065343-33.13582991-.00279763-11.58751614-.01875167-23.17499844-.0013377-34.76251603.01022989-19.45506035.01340695-38.90995506-.00421686-58.36499022-.03941344-22.45694029-.04015957-44.913485-.02714853-67.37041569.01347886-19.31955781.0335457-38.6389969.03818897-57.95857049.01890262-11.52188374-.01147502-23.04358188-.01312337-34.56545352.0113393-10.83478842.02139916-21.66906937.00638268-32.50380326-.03611962-3.96411042-.00971526-7.9282639-.00702985-11.89235687.00931845-50.00146961.18711798-50.00146961.18711798-70.5396736-18.91976142-10.57095325-11.90195449-13.1618808-23.57297399-14.0421875-40.17679688 1.15277247-35.71313856 23.36812724-63.71799499 41.71513671-91.15813476 6.16572009-9.26208969 12.19794002-18.63082404 18.23486329-27.99811524 1.18435838-1.83209941 2.36871679-3.6641988 3.58896483-5.55181639 8.00039842-12.38911588 15.91029402-24.84612403 23.77353517-37.3444336 12.56347888-19.96915082 25.32987162-39.76875144 38.14121093-59.5396875 7.34506328-11.34307069 14.6692055-22.70305942 21.99731444-34.0598291 1.62951197-2.52369513 1.62951197-2.52369513 3.29194335-5.09837403l3.12097474-5.00044097c3.84855654-5.7716684 3.84855654-5.7716684 8.30998841-11.092034 16.74322437-21.41093642 15.50942354-41.77867407 15.10653685-68.70065003-.00021729-4.51552754.00829106-9.0310651.0250763-13.54655364.0250311-11.81040344-.04852403-23.6172238-.1494171-35.42702545-.14714113-18.95801028-.15196987-37.9163861-.13930016-56.87496746-.01120774-6.60726886-.07032027-13.21238089-.13606912-19.81921863-.0146037-4.04014888-.02806045-8.08030321-.04018249-12.12046236-.03080759-1.83134378-.06161516-3.66268758-.09335632-5.54952667.0093549-7.3669849.48205945-13.16050262 3.14558106-19.93851471 6.39202801-5.7300823 11.49612204-5.01574323 19.60680847-5.01691955Zm13.21289064 38.1342041c.14746872 12.65583515.29493747 25.31167032.446875 38.35101562.03463873 8.10616845.06135465 16.21050237.06015622 24.31652345-.00115944 12.81636477.02409366 25.62703897.22451174 38.44170409 1.29377864 86.78678066 1.29377864 86.78678066-22.56933595 115.20679687l-3.53699951 3.89352358c-4.59599833 5.2019597-8.15776342 11.0405586-11.82755128 17.07473326-2.30959643 3.57320077-4.6211931 7.14478648-6.93515622 10.71445312l-3.60507814 5.5782422c-5.29537677 8.18453577-10.62321907 16.33270122-16.05742186 24.4030078.72599997 1.6236 1.45199997 3.2472 2.2 4.92l6.40234372-2.1525c47.92592198-14.96151055 89.995577-10.65491677 133.409375 16.00861817 29.92112002 18.14905233 59.34896196 27.98372808 92.8640625 17.3647412l4.92421878-1.70085937c-3.3603726-10.94219227-8.6602137-19.83685786-14.575-29.2125-1.02926809-1.65273442-2.05853615-3.30546884-3.11899415-5.00828613-2.31342205-3.71257886-4.63171126-7.42136952-6.9539551-11.12705566-6.02729016-9.62670046-12.02083653-19.27957377-18.01894529-28.92902343-5.922198-9.52382687-11.85355378-19.04050546-17.78637696-28.55605958-6.9820753-11.28045073-8.41289163-18.21809469-8.44819336-31.69051758l-.06697083-5.8199405c-.06796738-6.34908829-.10534555-12.69792069-.14250181-19.04732024-.04115463-4.40177938-.0842153-8.80353696-.12910769-13.20527068-.1130371-11.58646081-.20014392-23.17299206-.28191528-34.7597745-.10347823-13.90159374-.23904916-27.80283657-.3692627-41.7041432-.19422565-21.11989496-.34759342-42.23972025-.50877683-63.3601085h-105.6Zm-52.72265628 298.77708985c-4.06350285 1.21878496-8.18904849 2.17116198-12.31484372 3.0918164-24.15278312 7.07640654-33.48609066 28.9167963-45.88203128 51.22157227-5.189954 9.05065946-10.95531355 17.54332457-16.81796872 26.05702147-9.36390447 13.75508469-18.45891575 27.68747154-27.3625 41.82-1.0835054 1.7191292-2.16701076 3.43825841-3.28334963 5.20948244-2.9546739 4.70904546-5.89109411 9.43131027-8.81665037 14.16301756l-2.6296875 4.22572266c-7.43214835 12.1443807-10.26465392 22.8264187-8.3703125 37.59427734 5.79348475 9.46809363 12.33248757 11.79081388 22 14.76 5.70016693.45151266 11.15780899.67599964 16.85150451.6413132 1.65343469.00941082 3.30686937.01882168 5.01040815.0285177 5.51736264.02529991 11.03421733.01561255 16.5516127.0058283 3.96509162.01069846 7.93017914.02345054 11.89526064.03809967 10.75450074.03291671 21.50883127.0343655 32.26336445.02813428 8.98269216-.00263284 17.96534997.009385 26.94803476.02116933 21.19298852.02728595 42.38589126.02837438 63.57888704.01349514 21.8545278-.01486182 43.7087441.01543943 65.56321876.06782237 18.77370497.04334206 37.5473108.05809773 56.32105432.05009116 11.20827407-.00445862 22.4163259.0020163 33.62456366.03619777 10.54029799.0309424 21.08011046.02616028 31.620401-.00593079 3.86400428-.00581859 7.72804275.00090324 11.59200784.02121288 5.2834996.02576449 10.56537183.0058118 15.84881362-.02536536l4.60967918.05497193c12.44910949-.15405485 22.56121629-3.48590022 32.32118937-12.35305758 3.69326672-9.80814133 2.66340628-17.89413557 0-27.9825-4.3172327-9.67042452-9.80194306-18.2664328-15.4-27.06-2.0153043-3.2115564-4.02900866-6.42436857-6.04140628-9.63820312-4.46860948-7.11436273-8.9607016-14.20933683-13.46640622-21.294375-15.13282677-23.83785274-29.91658446-47.97040216-44.2921875-72.38742188l-3.8671875 1.52789063c-38.52093562 14.85535092-72.34902194 6.69840386-108.3328125-12.59789063-8.16946218-4.46464586-16.31108853-8.98243084-24.32890628-13.77984375-33.06093051-19.45691126-70.53165759-14.46594815-105.39375-3.55306639Z" vector-effect="non-scaling-stroke"></path>
  <path d="M449.73 835.678c10.88459315 6.99767384 17.25776092 17.45569344 21.175 30.59625 1.55233628 17.61404273.7490954 32.19462865-8.8 46.74-8.01060801 10.11892784-16.69673256 15.0016638-28.6 17.22-14.05253896.19985111-24.26481873-1.77864482-35.2-12.3-9.86303274-11.27931535-15.26436404-21.30652905-15.46875-37.39007813 1.00240956-16.50490132 5.53034284-28.07456267 16.43125-39.63867187 15.23289517-11.21695007 33.53644763-13.59534087 50.4625-5.2275Zm-42.625 25.67625c-5.23196192 9.68953403-6.85477043 14.8595685-5.6375 26.1375 3.97563769 9.60224927 8.08801092 16.02509827 16.6375 20.6025 10.12938016 2.27327414 17.35084666 1.63150563 26.2625-4.305 6.71752508-8.19427026 8.65469933-12.52899687 9.7625-23.6775-.98270953-10.62219653-3.53445642-15.54293308-9.625-23.6775-12.40629291-10.52395882-26.62735088-5.7569417-37.4 4.92Zm261.763-14.60605c8.80086999 6.77933683 17.46135299 15.27838503 20.8140625 26.95429687 2.60862628 16.43197413.13696452 28.12409276-8.0265625 41.77195313-8.3505561 9.33744-16.97310065 14.62919265-28.978125 14.84648437-11.57894927-.8906748-19.22556599-3.73062763-28.221875-12.38648437-8.92404379-13.21503978-12.21750759-22.7509827-11-39.36 4.30218888-14.48686681 10.93302324-23.2912459 22-31.98 11.28426288-4.20595253 22.13523875-4.04959284 33.4125.15375Zm-35.6125 29.36625c-2.92397967 7.11119464-2.92397967 7.11119464-2.2 14.76 3.98577348 9.27018444 7.02157355 13.67923688 15.125 18.60375 8.9908371 1.40747468 12.65502988-.58812455 20.075-6.30375 5.2110501-6.95468888 6.56829197-10.5981433 6.7375-19.68-3.19396029-10.08403289-7.60804706-13.88262725-15.5375-19.68-11.00901945-3.07752135-16.79757165 3.64650007-24.2 12.3ZM543.582 785.3106c10.13634952 7.39192286 16.17122954 14.6420411 19.3875 27.82875.18417824 11.73885137-.58186872 20.79551017-7.29609375 30.25992188-8.29094666 9.0126665-15.75346104 12.7626007-27.3109375 13.35703125-10.89213822-.9269271-18.05690645-5.20542168-25.48046875-13.94320313-6.20015068-10.66599346-6.93551272-20.7760173-5.775-33.21 3.77802894-11.56185311 8.50534665-17.73560368 17.6-24.6 10.25756288-3.82327343 18.6725732-3.79944053 28.875.3075Zm-23.925 22.14c-5.60324943 6.58667777-5.60324943 6.58667777-5.225 14.76 2.03116146 7.38095938 2.03116146 7.38095938 7.425 11.9925 5.96645161 3.14601744 5.96645161 3.14601744 11.9625.76875 5.30003544-3.0302797 5.30003544-3.0302797 9.4875-8.14875 1.28440312-7.17071673 1.28440312-7.17071673 0-14.76-4.8507417-6.0618369-4.8507417-6.0618369-11-9.84-7.00388504-.75208043-7.00388504-.75208043-12.65 5.2275Zm49.917-340.1828c10.02222223 1.36666668 10.02222223 1.36666668 13.2 4.92.21549684 3.3852031.28155794 6.7825615.28466797 10.17632813l.0210144 6.54218262-.01349487 7.11273925.00637817 7.2520752c.0015002 5.07074868-.0025809 10.1415026-.01174927 15.21224121-.0117658 7.79092071-.00012182 15.58149255.01396485 23.37240234-.00145372 4.91359453-.00427227 9.82718884-.00859375 14.74078125l.01349487 7.11273925-.0210144 6.54218263-.00530396 5.78784667C582.774 580.4278 582.774 580.4278 580.574 582.8878c-5.3625.46125-5.3625.46125-11 0-5.2546302-5.87563194-4.95423368-7.11482614-4.96933593-15.11074218-.0138695-2.10154328-.02773903-4.20308657-.04202882-6.36831299.00890663-2.27298054.01781324-4.54596108.02698975-6.88781983-.00420959-2.32926746-.00841918-4.65853491-.01275635-7.05838624-.00299726-4.92991631.00514312-9.85985427.02349853-14.789729.02353719-7.56427336.00023424-15.12710944-.02792968-22.69133788.0029075-4.78226881.00854471-9.56453673.0171875-14.34679688l-.02698975-6.88781983c.0138695-2.10154329.02773903-4.20308658.04202882-6.368313l.0106079-5.61637938C565.174 472.1878 565.174 472.1878 569.574 467.2678Zm6.868 131.318c4.125 1.69125 4.125 1.69125 6.325 4.15125.60092593 14.11083333.60092593 14.11083333 0 19.68l-4.4 4.92c-10.02222223-1.36666668-10.02222223-1.36666668-13.2-4.92-.81589405-14.36900662-.81589405-14.36900662 0-19.68 6.6-4.92 6.6-4.92 11.275-4.15125Z" vector-effect="non-scaling-stroke"></path>
  <path fill="#ff3d23" d="M549.26 235.6933c-11.5 0-20.8196-11.3841-20.8196-22.7591v-97.5884c0-11.375 9.3196-22.7591 20.8196-22.7591 11.5 0 20.8196 11.3841 20.8196 22.7591v97.5793c0 11.375-9.3196 22.7591-20.8196 22.7591v.0091Z" vector-effect="non-scaling-stroke"></path>
  <path fill="#ffd357" d="M473.2828 266.956c-8.1328 8.0444-22.862 6.5065-30.9948-1.5288l-69.754216-68.9962c-8.1328-8.0444-9.678492-22.613955-1.545692-30.658355 8.132892-8.0444 22.861908-6.5065 30.994708 1.5288l69.7544 68.996655c8.1328 8.0444 9.6784 22.6135 1.5456 30.6579Z" vector-effect="non-scaling-stroke"></path>
  <path fill="#b4dc00" d="M441.8396 342.44c0 11.375-11.5092 20.5933-23.0092 20.5933h-98.651692c-11.5 0-23.00916228-9.2183-23.00916228-20.5933s11.50916228-20.5933 23.00916228-20.5933H418.8304c11.5 0 23.0092 9.2183 23.0092 20.5933Z" vector-effect="non-scaling-stroke"></path>
  <path fill="#41beff" d="M473.312 418.0731c8.1328 8.0444 6.578 22.6135-1.5456 30.6579l-69.7544 68.9962c-8.1328 8.0444-22.862276 9.5732-30.995076 1.5288s-6.578-22.6135 1.5456-30.6579l69.754676-68.9962c8.1328-8.0444 22.862-9.5732 30.9948-1.5288Z" vector-effect="non-scaling-stroke"></path>
  <path fill="#006efa" d="M540 479.4626c9.625 0 17.4251 9.6327 17.4251 19.2577v82.5671c0 9.625-7.8001 19.2577-17.4251 19.2577s-17.4251-9.6327-17.4251-19.2577v-82.5671c0-9.625 7.8001-19.2577 17.4251-19.2577Z" vector-effect="non-scaling-stroke"></path>
  <path fill="#00a078" d="M657.1304 342.44c0-11.375 11.5092-20.5933 23.0092-20.5933h98.6516c11.5 0 23.0092 9.2183 23.0092 20.5933s-11.5092 20.5933-23.0092 20.5933h-98.6516c-11.5 0-23.0092-9.2183-23.0092-20.5933Z" vector-effect="non-scaling-stroke"></path>
  <path fill="#5bc686" d="M625.538 266.9469c-8.1328-8.0444-6.578-22.6135 1.5456-30.6579l69.7544-68.9962c8.1328-8.0444 22.862-9.5732 30.9948-1.5288 8.1328 8.0444 6.578 22.6135-1.5456 30.6579l-69.7544 68.9962c-8.1328 8.0444-22.862 9.5732-30.9948 1.5288Z" vector-effect="non-scaling-stroke"></path>
  <path fill="#282828" d="M558.15728 374.38463c17.83236-4.81572 28.34152-23.01845 23.4738-40.65607-4.86864-17.63853-23.2714-28.03346-41.10284-23.21865-17.83236 4.81572-28.34152 23.01845-23.4738 40.65607 4.86864 17.63853 23.27048 28.03346 41.10284 23.21865Z" vector-effect="non-scaling-stroke"></path>
</svg></svg></g></svg>